{
  "accessors": [
    {
      "bufferView": 2,
      "componentType": 5126,
      "count": 27741,
      "max": [
        2.544161558151245,
        -4.28159236907959,
        3.4968552589416504
      ],
      "min": [
        1.4706631898880005,
        -5.502923488616943,
        1.6711822748184204
      ],
      "type": "VEC3"
    },
    {
      "bufferView": 2,
      "byteOffset": 332892,
      "componentType": 5126,
      "count": 27741,
      "max": [
        0.9998666644096375,
        0.9999934434890747,
        0.9998254776000977
      ],
      "min": [
        -0.9996374249458313,
        -0.9998506903648376,
        -0.999647319316864
      ],
      "type": "VEC3"
    },
    {
      "bufferView": 3,
      "componentType": 5126,
      "count": 27741,
      "max": [
        0.9960784316062927,
        0.9960784316062927,
        0.9960784316062927,
        1.0
      ],
      "min": [
        0.7607843279838562,
        0.7176470756530762,
        0.5647059082984924,
        1.0
      ],
      "type": "VEC4"
    },
    {
      "bufferView": 1,
      "componentType": 5126,
      "count": 27741,
      "max": [
        0.9980400204658508,
        0.9980400204658508
      ],
      "min": [
        0.006810000166296959,
        0.0019499999471008778
      ],
      "type": "VEC2"
    },
    {
      "bufferView": 0,
      "componentType": 5125,
      "count": 165552,
      "type": "SCALAR"
    }
  ],
  "asset": {
    "extras": {
      "author": "University of Dundee, School of Dentistry (https://sketchfab.com/DundeeDental)",
      "license": "CC-BY-4.0 (http://creativecommons.org/licenses/by/4.0/)",
      "source": "https://sketchfab.com/3d-models/mandibular-first-molar-e1c919d6603846eca873154eeededdd6",
      "title": "Mandibular First Molar"
    },
    "generator": "Sketchfab-15.11.0",
    "version": "2.0"
  },
  "bufferViews": [
    {
      "buffer": 0,
      "byteLength": 662208,
      "name": "floatBufferViews",
      "target": 34963
    },
    {
      "buffer": 0,
      "byteLength": 221928,
      "byteOffset": 662208,
      "byteStride": 8,
      "name": "floatBufferViews",
      "target": 34962
    },
    {
      "buffer": 0,
      "byteLength": 665784,
      "byteOffset": 884136,
      "byteStride": 12,
      "name": "floatBufferViews",
      "target": 34962
    },
    {
      "buffer": 0,
      "byteLength": 443856,
      "byteOffset": 1549920,
      "byteStride": 16,
      "name": "floatBufferViews",
      "target": 34962
    }
  ],
  "buffers": [
    {
      "byteLength": 1993776,
      "uri": "scene.bin"
    }
  ],
  "extensionsUsed": [
    "KHR_materials_specular"
  ],
  "images": [
    {
      "uri": "textures/defaultMat_baseColor.png"
    }
  ],
  "materials": [
    {
      "doubleSided": true,
      "extensions": {
        "KHR_materials_specular": {
          "specularColorFactor": [
            1.0,
            1.0,
            1.0
          ],
          "specularFactor": 0.02
        }
      },
      "name": "defaultMat",
      "pbrMetallicRoughness": {
        "baseColorTexture": {
          "index": 0
        },
        "metallicFactor": 0.0,
        "roughnessFactor": 0.2
      }
    }
  ],
  "meshes": [
    {
      "name": "Object_0",
      "primitives": [
        {
          "attributes": {
            "COLOR_0": 2,
            "NORMAL": 1,
            "POSITION": 0,
            "TEXCOORD_0": 3
          },
          "indices": 4,
          "material": 0,
          "mode": 4
        }
      ]
    }
  ],
  "nodes": [
    {
      "children": [
        1
      ],
      "matrix": [
        0.9784443974494934,
        -4.758926897461708e-17,
        0.2065105140209198,
        0.0,
        0.20451296865940094,
        -0.13875204324722268,
        -0.9689800143241882,
        0.0,
        0.02865375578403473,
        0.9903271794319153,
        -0.13576115667819955,
        0.0,
        0.0,
        0.0,
        0.0,
        1.0
      ],
      "name": "Sketchfab_model"
    },
    {
      "children": [
        2
      ],
      "name": "LL6sketch_1.OBJ.cleaner"
    },
    {
      "mesh": 0,
      "name": "Object_2"
    }
  ],
  "samplers": [
    {
      "magFilter": 9728,
      "minFilter": 9728,
      "wrapS": 10497,
      "wrapT": 10497
    }
  ],
  "scene": 0,
  "scenes": [
    {
      "name": "Sketchfab_Scene",
      "nodes": [
        0
      ]
    }
  ],
  "textures": [
    {
      "sampler": 0,
      "source": 0
    }
  ]
}
